<svg xmlns="http://www.w3.org/2000/svg" width="439" height="198" role="img" aria-label="Artist sanitizers">
<title>Artist sanitizers</title>
<rect width="439" height="198" rx="4" fill="#444"/>
<g fill="#fff" font-family="Verdana,DejaVu Sans,Geneva,sans-serif" text-anchor="middle">
<text x="219.5" y="25.0" font-size="18" font-weight="bold">Artist sanitizers</text>
<rect x="0" y="36" width="171" height="26" fill="#555"/>
<rect x="171" y="36" width="48" height="26" fill="#4c1"/>
<text x="161" y="53" font-size="12" text-anchor="end">ASan Linux Cairo</text>
<text x="195.0" y="53" font-size="12">pass</text>
<rect x="0" y="63" width="171" height="26" fill="#555"/>
<rect x="171" y="63" width="48" height="26" fill="#4c1"/>
<text x="161" y="80" font-size="12" text-anchor="end">ASan Windows Cairo</text>
<text x="195.0" y="80" font-size="12">pass</text>
<rect x="0" y="90" width="171" height="26" fill="#555"/>
<rect x="171" y="90" width="48" height="26" fill="#4c1"/>
<text x="161" y="107" font-size="12" text-anchor="end">ASan Windows Direct2D</text>
<text x="195.0" y="107" font-size="12">pass</text>
<rect x="0" y="117" width="171" height="26" fill="#555"/>
<rect x="171" y="117" width="48" height="26" fill="#4c1"/>
<text x="161" y="134" font-size="12" text-anchor="end">ASan macOS Cairo</text>
<text x="195.0" y="134" font-size="12">pass</text>
<rect x="0" y="144" width="171" height="26" fill="#555"/>
<rect x="171" y="144" width="48" height="26" fill="#4c1"/>
<text x="161" y="161" font-size="12" text-anchor="end">ASan macOS Quartz 2D</text>
<text x="195.0" y="161" font-size="12">pass</text>
<rect x="0" y="171" width="171" height="26" fill="#555"/>
<rect x="171" y="171" width="48" height="26" fill="#4c1"/>
<text x="161" y="188" font-size="12" text-anchor="end">TSan Linux Cairo</text>
<text x="195.0" y="188" font-size="12">pass</text>
<rect x="220" y="36" width="171" height="26" fill="#555"/>
<rect x="391" y="36" width="48" height="26" fill="#4c1"/>
<text x="381" y="53" font-size="12" text-anchor="end">TSan Linux Skia</text>
<text x="415.0" y="53" font-size="12">pass</text>
<rect x="220" y="63" width="171" height="26" fill="#555"/>
<rect x="391" y="63" width="48" height="26" fill="#4c1"/>
<text x="381" y="80" font-size="12" text-anchor="end">TSan macOS Cairo</text>
<text x="415.0" y="80" font-size="12">pass</text>
<rect x="220" y="90" width="171" height="26" fill="#555"/>
<rect x="391" y="90" width="48" height="26" fill="#4c1"/>
<text x="381" y="107" font-size="12" text-anchor="end">TSan macOS Quartz 2D</text>
<text x="415.0" y="107" font-size="12">pass</text>
<rect x="220" y="117" width="171" height="26" fill="#555"/>
<rect x="391" y="117" width="48" height="26" fill="#4c1"/>
<text x="381" y="134" font-size="12" text-anchor="end">TSan macOS Skia</text>
<text x="415.0" y="134" font-size="12">pass</text>
<rect x="220" y="144" width="171" height="26" fill="#555"/>
<rect x="391" y="144" width="48" height="26" fill="#4c1"/>
<text x="381" y="161" font-size="12" text-anchor="end">UBSan Linux Skia</text>
<text x="415.0" y="161" font-size="12">pass</text>
<rect x="220" y="171" width="171" height="26" fill="#555"/>
<rect x="391" y="171" width="48" height="26" fill="#4c1"/>
<text x="381" y="188" font-size="12" text-anchor="end">UBSan macOS Skia</text>
<text x="415.0" y="188" font-size="12">pass</text>
</g>
</svg>
